<?xml version="1.0" encoding="UTF-8"?>
<svg xmlns="http://www.w3.org/2000/svg" xmlns:xlink="http://www.w3.org/1999/xlink" width="4000" height="2500" viewBox="0 0 4000 2500">
<defs>
<linearGradient id="linear-pattern-0" gradientUnits="userSpaceOnUse" x1="0.000000000000000111" y1="0" x2="1" y2="0" gradientTransform="matrix(3250, -3250, 3250, 3250, 375, 2875)">
<stop offset="0" stop-color="rgb(85.498047%, 85.653687%, 85.205078%)" stop-opacity="1"/>
<stop offset="0.015625" stop-color="rgb(85.68573%, 85.713196%, 85.38208%)" stop-opacity="1"/>
<stop offset="0.03125" stop-color="rgb(86.068726%, 86.003113%, 85.806274%)" stop-opacity="1"/>
<stop offset="0.0625" stop-color="rgb(86.457825%, 86.468506%, 86.303711%)" stop-opacity="1"/>
<stop offset="0.078125" stop-color="rgb(86.846924%, 86.930847%, 86.64093%)" stop-opacity="1"/>
<stop offset="0.09375" stop-color="rgb(87.057495%, 87.185669%, 86.898804%)" stop-opacity="1"/>
<stop offset="0.109375" stop-color="rgb(87.243652%, 87.258911%, 87.084961%)" stop-opacity="1"/>
<stop offset="0.125" stop-color="rgb(87.442017%, 87.478638%, 87.330627%)" stop-opacity="1"/>
<stop offset="0.140625" stop-color="rgb(87.637329%, 87.718201%, 87.588501%)" stop-opacity="1"/>
<stop offset="0.15625" stop-color="rgb(87.998962%, 88.002014%, 87.846375%)" stop-opacity="1"/>
<stop offset="0.171875" stop-color="rgb(88.232422%, 88.40332%, 88.171387%)" stop-opacity="1"/>
<stop offset="0.1875" stop-color="rgb(88.42926%, 88.674927%, 88.439941%)" stop-opacity="1"/>
<stop offset="0.203125" stop-color="rgb(88.62915%, 88.91449%, 88.699341%)" stop-opacity="1"/>
<stop offset="0.21875" stop-color="rgb(88.825989%, 89.157104%, 88.957214%)" stop-opacity="1"/>
<stop offset="0.25" stop-color="rgb(89.170837%, 89.442444%, 89.358521%)" stop-opacity="1"/>
<stop offset="0.265625" stop-color="rgb(89.556885%, 89.743042%, 89.668274%)" stop-opacity="1"/>
<stop offset="0.28125" stop-color="rgb(89.944458%, 90.032959%, 89.802551%)" stop-opacity="1"/>
<stop offset="0.296875" stop-color="rgb(90.197754%, 90.292358%, 90.0177%)" stop-opacity="1"/>
<stop offset="0.3125" stop-color="rgb(90.394592%, 90.534973%, 90.281677%)" stop-opacity="1"/>
<stop offset="0.328125" stop-color="rgb(90.596008%, 90.782166%, 90.545654%)" stop-opacity="1"/>
<stop offset="0.34375" stop-color="rgb(90.792847%, 91.02478%, 90.811157%)" stop-opacity="1"/>
<stop offset="0.359375" stop-color="rgb(91.120911%, 91.31012%, 91.079712%)" stop-opacity="1"/>
<stop offset="0.375" stop-color="rgb(91.389465%, 91.575623%, 91.349792%)" stop-opacity="1"/>
<stop offset="0.390625" stop-color="rgb(91.58783%, 91.824341%, 91.616821%)" stop-opacity="1"/>
<stop offset="0.40625" stop-color="rgb(91.899109%, 91.992188%, 91.841125%)" stop-opacity="1"/>
<stop offset="0.421875" stop-color="rgb(92.173767%, 92.189026%, 92.079163%)" stop-opacity="1"/>
<stop offset="0.4375" stop-color="rgb(92.372131%, 92.43927%, 92.350769%)" stop-opacity="1"/>
<stop offset="0.453125" stop-color="rgb(92.575073%, 92.686462%, 92.617798%)" stop-opacity="1"/>
<stop offset="0.46875" stop-color="rgb(92.774963%, 92.938232%, 92.892456%)" stop-opacity="1"/>
<stop offset="0.484375" stop-color="rgb(92.979431%, 93.186951%, 93.161011%)" stop-opacity="1"/>
<stop offset="0.5" stop-color="rgb(93.177795%, 93.438721%, 93.435669%)" stop-opacity="1"/>
<stop offset="0.515625" stop-color="rgb(93.476868%, 93.717957%, 93.710327%)" stop-opacity="1"/>
<stop offset="0.53125" stop-color="rgb(93.870544%, 94.029236%, 93.995667%)" stop-opacity="1"/>
<stop offset="0.546875" stop-color="rgb(94.17572%, 94.311523%, 94.271851%)" stop-opacity="1"/>
<stop offset="0.5625" stop-color="rgb(94.37561%, 94.566345%, 94.551086%)" stop-opacity="1"/>
<stop offset="0.578125" stop-color="rgb(94.664001%, 94.844055%, 94.828796%)" stop-opacity="1"/>
<stop offset="0.59375" stop-color="rgb(95.059204%, 95.158386%, 95.118713%)" stop-opacity="1"/>
<stop offset="0.609375" stop-color="rgb(95.376587%, 95.446777%, 95.399475%)" stop-opacity="1"/>
<stop offset="0.625" stop-color="rgb(95.578003%, 95.704651%, 95.681763%)" stop-opacity="1"/>
<stop offset="0.640625" stop-color="rgb(95.783997%, 95.957947%, 95.957947%)" stop-opacity="1"/>
<stop offset="0.65625" stop-color="rgb(95.986938%, 96.217346%, 96.24176%)" stop-opacity="1"/>
<stop offset="0.671875" stop-color="rgb(96.188354%, 96.408081%, 96.492004%)" stop-opacity="1"/>
<stop offset="0.6875" stop-color="rgb(96.31958%, 96.517944%, 96.716309%)" stop-opacity="1"/>
<stop offset="0.703125" stop-color="rgb(96.391296%, 96.733093%, 96.931458%)" stop-opacity="1"/>
<stop offset="0.71875" stop-color="rgb(96.595764%, 96.928406%, 97.05658%)" stop-opacity="1"/>
<stop offset="0.734375" stop-color="rgb(96.788025%, 97.04895%, 97.280884%)" stop-opacity="1"/>
<stop offset="0.75" stop-color="rgb(97.045898%, 97.325134%, 97.517395%)" stop-opacity="1"/>
<stop offset="0.765625" stop-color="rgb(97.393799%, 97.573853%, 97.645569%)" stop-opacity="1"/>
<stop offset="0.78125" stop-color="rgb(97.58606%, 97.686768%, 97.866821%)" stop-opacity="1"/>
<stop offset="0.8125" stop-color="rgb(97.831726%, 97.961426%, 98.152161%)" stop-opacity="1"/>
<stop offset="0.828125" stop-color="rgb(98.191833%, 98.266602%, 98.446655%)" stop-opacity="1"/>
<stop offset="0.84375" stop-color="rgb(98.364258%, 98.518372%, 98.699951%)" stop-opacity="1"/>
<stop offset="0.859375" stop-color="rgb(98.406982%, 98.716736%, 98.815918%)" stop-opacity="1"/>
<stop offset="0.875" stop-color="rgb(98.614502%, 98.982239%, 99.107361%)" stop-opacity="1"/>
<stop offset="0.890625" stop-color="rgb(98.817444%, 99.21875%, 99.360657%)" stop-opacity="1"/>
<stop offset="0.90625" stop-color="rgb(99.034119%, 99.308777%, 99.401855%)" stop-opacity="1"/>
<stop offset="0.9375" stop-color="rgb(99.430847%, 99.635315%, 99.708557%)" stop-opacity="1"/>
<stop offset="1" stop-color="rgb(99.816895%, 99.940491%, 99.987793%)" stop-opacity="1"/>
</linearGradient>
</defs>
<path fill-rule="nonzero" fill="url(#linear-pattern-0)" d="M -1250 1250 L 2000 4500 L 5250 1250 L 2000 -2000 Z M -1250 1250 "/>
<path fill-rule="nonzero" fill="rgb(38.075256%, 49.940491%, 78.666687%)" fill-opacity="1" d="M 1578.71875 2476.179688 C 1459.558594 2476.191406 1341.878906 2430.832031 1237.789062 2344.660156 C 1137.5 2261.640625 1054.570312 2145.75 997.976562 2009.53125 C 934.328125 1856.328125 909.707031 1686.859375 928.648438 1532.339844 C 949.765625 1360.058594 1023.640625 1208.488281 1142.28125 1094.03125 C 1285.96875 955.390625 1371.78125 715.121094 1383.910156 417.480469 C 1395.058594 143.859375 1343.398438 -148.648438 1242.179688 -385.050781 C 1184.089844 -520.71875 1111.089844 -632.121094 1031.078125 -707.210938 C 943.269531 -789.609375 848.203125 -829.238281 748.511719 -825.140625 C 588.496094 -818.480469 423.957031 -700.148438 259.46875 -473.449219 C 70.710938 -213.300781 -113.914062 185.699219 -289.277344 712.46875 L -292.835938 711.28125 C -117.351562 184.148438 67.449219 -215.191406 256.433594 -475.648438 C 421.628906 -703.328125 587.136719 -822.179688 748.355469 -828.890625 C 849.007812 -833.039062 945.070312 -793.058594 1033.640625 -709.941406 C 1114.03125 -634.5 1187.339844 -522.660156 1245.628906 -386.519531 C 1347.058594 -149.628906 1398.828125 143.46875 1387.660156 417.628906 C 1375.488281 716.238281 1289.269531 957.421875 1144.890625 1096.730469 C 869.796875 1362.121094 895.6875 1753.539062 1001.441406 2008.089844 C 1119.058594 2291.199219 1345 2472.429688 1578.980469 2472.429688 C 1582.019531 2472.429688 1585.03125 2472.398438 1588.070312 2472.339844 C 1744.070312 2469.210938 1896.339844 2390.949219 2040.660156 2239.75 C 2206.039062 2066.480469 2355.128906 1801.929688 2483.769531 1453.421875 C 2634.769531 1044.300781 2788.378906 838.640625 2953.371094 824.699219 C 3195.859375 804.179688 3427.460938 1206.25 3651.28125 1595.089844 C 3757.019531 1778.789062 3866.359375 1968.75 3973.710938 2107.121094 C 4093.570312 2261.628906 4199.109375 2335.460938 4296.171875 2332.171875 C 4407.539062 2328.671875 4510.96875 2227.28125 4612.390625 2022.210938 L 4615.75 2023.871094 C 4513.660156 2230.289062 4409.171875 2332.371094 4296.289062 2335.921875 C 4294.320312 2335.988281 4292.339844 2336.019531 4290.359375 2336.019531 C 4193.601562 2336.019531 4088.980469 2261.820312 3970.738281 2109.421875 C 3863.230469 1970.839844 3753.828125 1780.769531 3648.03125 1596.960938 C 3424.808594 1209.140625 3193.949219 808.171875 2953.679688 828.429688 C 2790.289062 842.25 2637.730469 1047.109375 2487.289062 1454.71875 C 2358.46875 1803.710938 2209.121094 2068.699219 2043.371094 2242.339844 C 1898.339844 2394.289062 1745.179688 2472.941406 1588.148438 2476.089844 C 1585.011719 2476.148438 1581.859375 2476.179688 1578.71875 2476.179688 "/>
<path fill-rule="nonzero" fill="rgb(40.768433%, 46.813965%, 76.747131%)" fill-opacity="1" d="M 1576.738281 2479.738281 C 1449.410156 2479.75 1323.628906 2430.800781 1212.601562 2337.960938 C 1108.199219 2250.671875 1019.890625 2125.578125 963.929688 1985.730469 C 903.691406 1835.199219 882.609375 1677.480469 902.953125 1529.609375 C 925.308594 1367.121094 998.296875 1224.28125 1114.019531 1116.558594 C 1420.949219 830.808594 1407.820312 162.390625 1219.640625 -293.039062 C 1090.46875 -605.628906 898.488281 -780.839844 692.738281 -773.910156 C 530.085938 -768.378906 363.984375 -653.371094 199.042969 -432.089844 C 9.804688 -178.21875 -173.859375 211.828125 -346.84375 727.210938 L -350.398438 726.019531 C -177.285156 210.261719 6.5625 -180.140625 196.035156 -434.328125 C 361.691406 -656.570312 528.765625 -772.078125 692.609375 -777.660156 C 899.84375 -784.71875 1093.308594 -608.589844 1223.101562 -294.46875 C 1411.761719 162.109375 1424.679688 832.460938 1116.570312 1119.300781 C 850.496094 1366.988281 865.0625 1728.558594 967.410156 1984.339844 C 1087.179688 2283.648438 1325.910156 2475.988281 1576.769531 2475.988281 C 1578.679688 2475.988281 1580.570312 2475.980469 1582.480469 2475.960938 C 1741.078125 2474.109375 1895.109375 2398.53125 2040.308594 2251.300781 C 2206.671875 2082.609375 2355.570312 1824.21875 2482.859375 1483.308594 C 2631.128906 1086.179688 2783.898438 885.660156 2949.910156 870.261719 C 3198.261719 847.269531 3439.308594 1247.28125 3672.421875 1634.171875 C 3782.410156 1816.71875 3896.148438 2005.5 4007.351562 2142.820312 C 4131.5 2296.148438 4240.308594 2369 4339.5 2365.140625 C 4451.550781 2360.929688 4554.71875 2262.328125 4654.910156 2063.699219 L 4658.261719 2065.390625 C 4557.390625 2265.351562 4453.179688 2364.621094 4339.648438 2368.890625 C 4239.109375 2372.628906 4129.378906 2299.488281 4004.429688 2145.179688 C 3893.078125 2007.660156 3779.269531 1818.769531 3669.210938 1636.101562 C 3436.699219 1250.210938 3196.28125 851.140625 2950.25 873.988281 C 2785.828125 889.238281 2634.089844 1088.980469 2486.378906 1484.621094 C 2358.890625 1826.039062 2209.710938 2084.871094 2042.980469 2253.929688 C 1897.058594 2401.890625 1742.140625 2477.851562 1582.519531 2479.710938 C 1580.601562 2479.730469 1578.671875 2479.738281 1576.738281 2479.738281 "/>
<path fill-rule="nonzero" fill="rgb(66.7099%, 77.050781%, 91.687012%)" fill-opacity="1" d="M 1575.058594 2483.25 C 1439.210938 2483.25 1304.988281 2430.621094 1186.761719 2330.960938 C 1076.679688 2238.179688 985.34375 2107.230469 929.5625 1962.230469 C 873.667969 1816.921875 855.46875 1666.480469 876.945312 1527.160156 C 900.535156 1374.128906 972.644531 1239.710938 1085.46875 1138.441406 C 1383.121094 871.25 1376.390625 247.890625 1197.921875 -200.410156 C 1135.460938 -357.28125 1053.960938 -488 962.210938 -578.441406 C 861.089844 -678.121094 751.445312 -727.148438 636.53125 -724.109375 C 471.1875 -719.769531 303.453125 -608.078125 137.992188 -392.140625 C -51.804688 -144.441406 -234.582031 236.851562 -405.265625 741.128906 L -408.816406 739.929688 C -238.003906 235.25 -55.03125 -146.398438 135.015625 -394.421875 C 301.195312 -611.300781 469.898438 -723.480469 636.433594 -727.859375 C 752.492188 -730.898438 862.96875 -681.53125 964.84375 -581.109375 C 1056.960938 -490.308594 1138.761719 -359.148438 1201.398438 -201.789062 C 1380.351562 247.699219 1386.851562 872.949219 1087.96875 1141.230469 C 830.265625 1372.539062 838.980469 1716.300781 933.0625 1960.878906 C 1052.460938 2271.269531 1310.359375 2479.5 1575.109375 2479.5 C 1575.628906 2479.5 1576.101562 2479.5 1576.621094 2479.5 C 1737.898438 2479.019531 1893.800781 2406.109375 2039.96875 2262.789062 C 2207.410156 2098.628906 2356.21875 1846.25 2482.25 1512.671875 C 2627.808594 1127.390625 2779.699219 931.921875 2946.601562 915.089844 C 3200.851562 889.480469 3451.679688 1287.671875 3694.328125 1672.78125 C 3808.699219 1854.28125 3926.949219 2041.960938 4042.078125 2178.28125 C 4170.628906 2330.511719 4282.410156 2402.5 4384.148438 2397.941406 C 4496.800781 2393.039062 4599.671875 2297.191406 4698.648438 2104.898438 L 4701.980469 2106.621094 C 4602.339844 2300.210938 4498.429688 2396.730469 4384.308594 2401.691406 C 4281.589844 2406.019531 4168.570312 2333.878906 4039.210938 2180.710938 C 3923.921875 2044.179688 3805.589844 1856.390625 3691.160156 1674.78125 C 3449.121094 1290.640625 3198.738281 893.441406 2946.980469 918.820312 C 2781.628906 935.488281 2630.769531 1130.179688 2485.761719 1514 C 2359.53125 1848.078125 2210.421875 2100.921875 2042.589844 2265.46875 C 1895.699219 2409.488281 1738.929688 2482.761719 1576.628906 2483.25 C 1576.109375 2483.25 1575.570312 2483.25 1575.058594 2483.25 "/>
<path fill-rule="nonzero" fill="rgb(52.906799%, 76.789856%, 89.424133%)" fill-opacity="1" d="M 1573.789062 2486.660156 C 1572.671875 2486.660156 1571.558594 2486.660156 1570.441406 2486.648438 C 1426.871094 2485.808594 1285.058594 2429.460938 1160.339844 2323.691406 C 1044.480469 2225.441406 950.25 2088.898438 895.007812 1939.238281 C 843.394531 1799.398438 828.050781 1656.179688 850.640625 1525.050781 C 875.4375 1381.101562 946.667969 1254.75 1056.628906 1159.648438 C 1352.058594 904.148438 1339.050781 316 1176.820312 -107.671875 C 1038.949219 -467.699219 815.859375 -679.988281 579.949219 -675.738281 C 411.839844 -672.648438 242.398438 -564.269531 76.335938 -353.589844 C -114.121094 -111.96875 -296.121094 260.761719 -464.601562 754.238281 L -468.152344 753.03125 C -299.53125 259.140625 -117.328125 -113.960938 73.390625 -355.910156 C 240.183594 -567.519531 410.59375 -676.378906 579.882812 -679.488281 C 817.324219 -683.960938 1041.859375 -470.578125 1180.320312 -109.011719 C 1266.070312 114.929688 1306.738281 372.761719 1291.898438 598.371094 C 1275.351562 850.011719 1194.839844 1045.070312 1059.089844 1162.480469 C 847.019531 1345.878906 786.992188 1635.78125 898.523438 1937.941406 C 1016.351562 2257.171875 1292.671875 2481.269531 1570.460938 2482.898438 C 1734.339844 2483.808594 1892.371094 2413.640625 2039.609375 2274.199219 C 2208.25 2114.480469 2357.070312 1867.96875 2481.929688 1541.519531 C 2624.820312 1167.910156 2775.78125 977.410156 2943.441406 959.160156 C 3203.429688 930.878906 3464.570312 1327.429688 3717.019531 1710.960938 C 3835.851562 1891.480469 3958.71875 2078.148438 4077.871094 2213.53125 C 4210.921875 2364.710938 4326.230469 2435.710938 4430.050781 2430.609375 C 4543.230469 2425.039062 4645.769531 2331.890625 4743.53125 2145.839844 L 4746.851562 2147.589844 C 4648.421875 2334.910156 4544.859375 2428.710938 4430.230469 2434.351562 C 4325.21875 2439.558594 4208.910156 2368.109375 4075.050781 2216 C 3955.730469 2080.429688 3832.789062 1893.648438 3713.890625 1713.019531 C 3462.050781 1330.441406 3201.539062 934.890625 2943.839844 962.890625 C 2777.71875 980.980469 2627.769531 1170.691406 2485.429688 1542.859375 C 2360.371094 1869.851562 2211.238281 2116.820312 2042.191406 2276.929688 C 1895.230469 2416.109375 1737.648438 2486.660156 1573.789062 2486.660156 "/>
<path fill-rule="nonzero" fill="rgb(61.947632%, 79.847717%, 85.575867%)" fill-opacity="1" d="M 1572.851562 2490.019531 C 1569.859375 2490.019531 1566.871094 2490 1563.878906 2489.949219 C 1413.03125 2487.699219 1264.148438 2427.640625 1133.351562 2316.261719 C 1011.628906 2212.589844 914.65625 2070.820312 860.3125 1917.03125 C 758.132812 1627.898438 820.636719 1352.460938 1027.5 1180.230469 C 1313.039062 942.488281 1308.328125 398.871094 1156.101562 -15.261719 C 1090.699219 -193.160156 1000.78125 -344.058594 896.078125 -451.640625 C 782 -568.851562 652.773438 -630.210938 522.964844 -628.761719 C 352.011719 -627.011719 180.785156 -521.929688 14.035156 -316.441406 C -177.179688 -80.800781 -358.496094 283.558594 -524.878906 766.511719 L -528.425781 765.289062 C -361.898438 281.921875 -180.367188 -82.820312 11.125 -318.800781 C 178.609375 -525.199219 350.808594 -630.75 522.925781 -632.511719 C 653.808594 -633.921875 783.953125 -572.21875 898.765625 -454.261719 C 1003.839844 -346.300781 1094.039062 -194.949219 1159.621094 -16.550781 C 1240.671875 203.929688 1276.148438 442.789062 1259.539062 656.039062 C 1241.230469 891.011719 1161.828125 1073.269531 1029.898438 1183.109375 C 824.292969 1354.300781 762.214844 1628.191406 863.847656 1915.78125 C 980.980469 2247.230469 1268.859375 2481.800781 1563.929688 2486.199219 C 1731.019531 2488.609375 1890.789062 2421.191406 2039.191406 2285.558594 C 2209.160156 2130.238281 2358.089844 1889.449219 2481.871094 1569.890625 C 2622.109375 1207.769531 2772.089844 1022.199219 2940.378906 1002.550781 C 3206.640625 971.441406 3477.949219 1366.609375 3740.46875 1748.730469 C 3863.878906 1928.339844 3991.488281 2114.070312 4114.738281 2248.570312 C 4252.410156 2398.789062 4371.101562 2469 4477.25 2463.160156 C 4590.890625 2456.941406 4693.070312 2366.449219 4789.628906 2186.539062 L 4792.929688 2188.320312 C 4695.710938 2369.46875 4592.511719 2460.601562 4477.460938 2466.898438 C 4369.898438 2472.75 4250.449219 2402.191406 4111.980469 2251.109375 C 3988.539062 2116.421875 3860.859375 1930.570312 3737.378906 1750.851562 C 3475.488281 1369.648438 3204.589844 975.441406 2940.820312 1006.269531 C 2774.03125 1025.738281 2625.050781 1210.550781 2485.359375 1571.25 C 2361.378906 1891.351562 2212.109375 2132.609375 2041.71875 2288.328125 C 1895.238281 2422.191406 1737.539062 2490.019531 1572.851562 2490.019531 "/>
<path fill-rule="nonzero" fill="rgb(70.278931%, 72.123718%, 85.923767%)" fill-opacity="1" d="M 4511.761719 2499.761719 C 4405.570312 2499.761719 4287.070312 2429.679688 4150.050781 2286.011719 C 4022.398438 2152.148438 3889.871094 1967.160156 3761.699219 1788.269531 C 3489.449219 1408.269531 3207.96875 1015.378906 2937.910156 1048.949219 C 2770.609375 1069.789062 2622.648438 1249.75 2485.570312 1599.140625 C 2362.589844 1912.578125 2213.089844 2148.28125 2041.230469 2299.671875 C 1895.320312 2428.199219 1737.601562 2493.289062 1572.261719 2493.300781 C 1567.160156 2493.300781 1562.078125 2493.230469 1556.96875 2493.109375 C 1398.78125 2489.289062 1242.808594 2425.511719 1105.910156 2308.671875 C 978.253906 2199.730469 878.699219 2053.078125 825.585938 1895.761719 C 782.214844 1767.289062 772.34375 1638.101562 797.046875 1522.171875 C 824.488281 1393.359375 892.128906 1285.011719 998.085938 1200.148438 C 1283.871094 971.238281 1269.609375 456.980469 1135.421875 76.050781 C 1069.261719 -111.75 975.3125 -272.648438 863.722656 -389.269531 C 742.335938 -516.121094 604.96875 -583.160156 466.449219 -583.160156 C 466.152344 -583.160156 465.878906 -583.160156 465.582031 -583.160156 C 291.71875 -582.808594 118.621094 -481.019531 -48.898438 -280.640625 C -240.964844 -50.890625 -421.699219 305.289062 -586.074219 778 L -589.613281 776.769531 C -425.09375 303.628906 -244.136719 -52.941406 -51.777344 -283.039062 C 116.488281 -484.320312 290.550781 -586.550781 465.574219 -586.910156 C 465.863281 -586.910156 466.160156 -586.910156 466.449219 -586.910156 C 606.023438 -586.910156 744.3125 -519.480469 866.433594 -391.859375 C 978.386719 -274.859375 1072.628906 -113.488281 1138.960938 74.808594 C 1213.878906 287.511719 1245.109375 513.78125 1226.878906 711.929688 C 1206.761719 930.691406 1128.449219 1100.53125 1000.429688 1203.070312 C 800.941406 1362.851562 736.90625 1621.351562 829.140625 1894.558594 C 926.769531 2183.761719 1208.148438 2480.929688 1557.058594 2489.359375 C 1726.96875 2493.480469 1889.070312 2428.699219 2038.75 2296.851562 C 2210.160156 2145.859375 2359.320312 1910.660156 2482.089844 1597.769531 C 2619.710938 1246.988281 2768.660156 1066.25 2937.441406 1045.230469 C 3209.710938 1011.308594 3491.859375 1405.191406 3764.75 1786.078125 C 3892.839844 1964.871094 4025.289062 2149.75 4152.761719 2283.421875 C 4295.140625 2432.710938 4417.160156 2502.050781 4525.820312 2495.589844 C 4639.828125 2488.738281 4741.609375 2400.890625 4836.980469 2227 L 4840.269531 2228.800781 C 4744.230469 2403.910156 4641.449219 2492.398438 4526.050781 2499.328125 C 4521.320312 2499.621094 4516.539062 2499.761719 4511.761719 2499.761719 "/>
<path fill-rule="nonzero" fill="rgb(68.553162%, 69.573975%, 87.767029%)" fill-opacity="1" d="M 4559.75 2532.191406 C 4451.578125 2532.191406 4330.171875 2462.851562 4189.238281 2320.71875 C 4057.28125 2187.640625 3919.78125 2003.429688 3786.808594 1825.289062 C 3503.929688 1446.320312 3211.550781 1054.390625 2935.140625 1090.960938 C 2767.460938 1113.109375 2620.578125 1288.320312 2486.078125 1626.578125 C 2364 1933.601562 2214.148438 2163.851562 2040.671875 2310.96875 C 1888.871094 2439.699219 1723.640625 2501.96875 1549.628906 2496.160156 C 1384.078125 2490.589844 1220.988281 2423.128906 1078 2301.050781 C 944.378906 2186.96875 842.394531 2035.890625 790.835938 1875.621094 C 705.703125 1611 770.398438 1371.839844 968.328125 1219.449219 C 1243.21875 1007.808594 1239.851562 537.738281 1114.570312 165.761719 C 1005.550781 -157.921875 755.03125 -536.691406 407.773438 -538.898438 C 406.78125 -538.910156 405.761719 -538.910156 404.765625 -538.910156 C 228.914062 -538.910156 54.898438 -440.460938 -112.539062 -246.210938 C -305.574219 -22.261719 -485.828125 325.921875 -648.289062 788.671875 L -651.828125 787.429688 C -489.207031 324.238281 -308.722656 -24.351562 -115.378906 -248.660156 C 52.785156 -443.75 227.785156 -542.660156 404.761719 -542.660156 C 405.785156 -542.660156 406.777344 -542.660156 407.796875 -542.648438 C 556.738281 -541.699219 704.253906 -468.28125 834.398438 -330.328125 C 951.785156 -205.890625 1052.550781 -30.140625 1118.121094 164.558594 C 1243.828125 537.800781 1246.96875 1009.660156 970.617188 1222.429688 C 774.015625 1373.789062 709.789062 1611.449219 794.40625 1874.46875 C 887.824219 2164.871094 1184.308594 2480.121094 1549.761719 2492.410156 C 1923.949219 2504.917969 2255.21875 2197 2482.589844 1625.191406 C 2617.640625 1285.558594 2765.5 1109.589844 2934.648438 1087.238281 C 3213.03125 1050.460938 3506.289062 1443.210938 3789.820312 1823.050781 C 3922.710938 2001.089844 4060.128906 2185.191406 4191.898438 2318.078125 C 4339.101562 2466.53125 4464.671875 2535.21875 4575.710938 2527.929688 C 4690.011719 2520.480469 4791.359375 2435.210938 4885.550781 2267.238281 L 4888.828125 2269.078125 C 4793.960938 2438.238281 4691.621094 2524.128906 4575.949219 2531.667969 C 4570.589844 2532.019531 4565.179688 2532.191406 4559.75 2532.191406 "/>
<path fill-rule="nonzero" fill="rgb(67.193604%, 73.942566%, 90.071106%)" fill-opacity="1" d="M 4609.03125 2564.558594 C 4498.851562 2564.558594 4374.480469 2495.910156 4229.578125 2355.269531 C 4093.210938 2222.910156 3950.628906 2039.410156 3812.75 1861.949219 C 3518.929688 1483.828125 3215.058594 1092.820312 2932.488281 1132.289062 C 2764.578125 1155.730469 2618.808594 1326.230469 2486.871094 1653.558594 C 2365.601562 1954.359375 2215.261719 2179.328125 2040.019531 2322.210938 C 1886.699219 2447.21875 1719.039062 2506.730469 1541.808594 2499.050781 C 1371.359375 2491.679688 1196.570312 2418.628906 1049.648438 2293.390625 C 910.050781 2174.378906 805.789062 2019.289062 756.074219 1856.699219 C 679.382812 1605.890625 745.777344 1380.429688 938.222656 1238.121094 C 1219.441406 1030.179688 1197.460938 577.46875 1093.191406 252.980469 C 974.609375 -116.070312 698.6875 -490.78125 349.578125 -495.980469 C 169.433594 -498.75 -7.480469 -403.5 -176.8125 -213.121094 C -370.910156 5.109375 -550.78125 345.480469 -711.414062 798.539062 L -714.949219 797.28125 C -554.152344 343.769531 -374.039062 2.980469 -179.613281 -215.609375 C -9.519531 -406.839844 168.703125 -502.558594 349.636719 -499.730469 C 507.816406 -497.371094 664.394531 -417.910156 802.4375 -269.921875 C 927.046875 -136.339844 1031.570312 48.960938 1096.761719 251.828125 C 1159.359375 446.648438 1182.011719 647.578125 1160.53125 817.609375 C 1136.761719 1005.800781 1060.660156 1152.25 940.453125 1241.140625 C 749.359375 1382.441406 683.464844 1606.398438 759.660156 1855.601562 C 850.667969 2153.238281 1155.78125 2478.601562 1541.96875 2495.300781 C 1923.269531 2511.839844 2257.550781 2212.371094 2483.390625 1652.148438 C 2615.878906 1323.480469 2762.609375 1152.210938 2931.96875 1128.570312 C 3216.761719 1088.828125 3521.238281 1480.679688 3815.699219 1859.640625 C 3953.511719 2037 4096.019531 2220.398438 4232.191406 2352.570312 C 4384.300781 2500.21875 4513.289062 2568.101562 4626.960938 2560.191406 C 4741.46875 2552.179688 4842.359375 2469.460938 4935.378906 2307.300781 L 4938.628906 2309.171875 C 4844.941406 2472.488281 4743.078125 2555.820312 4627.21875 2563.929688 C 4621.210938 2564.351562 4615.128906 2564.558594 4609.03125 2564.558594 "/>
<path fill-rule="nonzero" fill="rgb(43.829346%, 55.166626%, 81.451416%)" fill-opacity="1" d="M 4659.648438 2596.871094 C 4547.410156 2596.871094 4420.03125 2528.871094 4271.089844 2389.628906 C 4130.210938 2257.941406 3982.410156 2075.070312 3839.480469 1898.21875 C 3534.429688 1520.789062 3218.898438 1130.539062 2929.941406 1172.96875 C 2761.941406 1197.640625 2617.371094 1363.511719 2487.949219 1680.050781 C 2367.410156 1974.878906 2216.460938 2194.691406 2039.300781 2333.390625 C 1884.328125 2454.71875 1714.160156 2511.332031 1533.488281 2501.78125 C 1355.789062 2492.351562 1173.761719 2415.621094 1020.910156 2285.730469 C 877.449219 2163.820312 768.257812 2001.019531 721.328125 1839.089844 C 689.019531 1727.601562 686.4375 1617.839844 713.855469 1521.679688 C 744.191406 1415.300781 809.429688 1325.980469 907.761719 1256.199219 C 1023.289062 1174.21875 1097.75 1039.441406 1123.089844 866.429688 C 1146.359375 707.511719 1128.398438 524.511719 1071.128906 337.238281 C 1007.070312 127.75 899.304688 -65.960938 767.683594 -208.230469 C 622.34375 -365.320312 457.5 -450.429688 290.976562 -454.359375 C 107.957031 -458.75 -71.425781 -366.839844 -241.816406 -181.359375 C -437.117188 31.230469 -616.726562 363.960938 -775.644531 807.589844 L -779.175781 806.328125 C -620.085938 362.21875 -440.222656 29.058594 -244.578125 -183.898438 C -73.425781 -370.199219 106.742188 -462.421875 291.066406 -458.109375 C 458.628906 -454.148438 624.390625 -368.621094 770.433594 -210.769531 C 902.433594 -68.101562 1010.5 126.128906 1074.71875 336.140625 C 1132.148438 523.949219 1150.160156 707.511719 1126.800781 866.980469 C 1101.308594 1041.019531 1026.320312 1176.671875 909.933594 1259.25 C 724.003906 1391.199219 656.570312 1602.160156 724.933594 1838.050781 C 814.203125 2146.109375 1141.128906 2477.199219 1533.691406 2498.039062 C 1922.339844 2518.679688 2260 2227.660156 2484.488281 1678.640625 C 2614.441406 1360.761719 2759.980469 1194.140625 2929.398438 1169.261719 C 3220.691406 1126.53125 3536.699219 1517.621094 3842.398438 1895.871094 C 3985.25 2072.609375 4132.960938 2255.371094 4273.640625 2386.890625 C 4430.808594 2533.808594 4563.609375 2600.980469 4679.609375 2592.378906 C 4794.25 2583.832031 4894.640625 2503.628906 4986.511719 2347.171875 L 4989.738281 2349.058594 C 4897.199219 2506.660156 4795.851562 2587.480469 4679.890625 2596.128906 C 4673.199219 2596.621094 4666.449219 2596.871094 4659.648438 2596.871094 "/>
<path fill-rule="nonzero" fill="rgb(71.109009%, 72.438049%, 86.216736%)" fill-opacity="1" d="M 4711.609375 2629.160156 C 4597.289062 2629.160156 4466.839844 2561.78125 4313.769531 2423.859375 C 4168.289062 2292.78125 4015.160156 2110.46875 3867.058594 1934.171875 C 3550.46875 1557.261719 3223.03125 1167.511719 2927.519531 1213.03125 C 2759.570312 1238.871094 2616.238281 1400.179688 2489.308594 1706.140625 C 2369.390625 1995.210938 2217.691406 2209.988281 2038.421875 2344.539062 C 1881.648438 2462.199219 1708.78125 2515.96875 1524.550781 2504.339844 C 1339.660156 2492.679688 1150.441406 2412.332031 991.746094 2278.089844 C 842.4375 2151.800781 731.207031 1985.859375 686.570312 1822.808594 C 657.113281 1715.210938 656.679688 1614.179688 685.28125 1522.511719 C 716.417969 1422.699219 780.902344 1338.96875 876.941406 1273.621094 C 1135.289062 1097.859375 1134.78125 716.371094 1048.171875 417.941406 C 985.628906 202.488281 874.566406 0.589844 735.4375 -150.558594 C 582.03125 -317.21875 407.929688 -408.320312 231.953125 -414.03125 C 45.53125 -420.101562 -135.996094 -331.558594 -307.539062 -150.921875 C -504.152344 56.121094 -683.597656 381.398438 -840.882812 815.878906 L -844.40625 814.601562 C -686.941406 379.628906 -507.226562 53.910156 -310.257812 -153.5 C -137.949219 -334.941406 44.4375 -423.851562 232.074219 -417.78125 C 409.082031 -412.039062 584.09375 -320.511719 738.195312 -153.101562 C 877.710938 -1.53125 989.070312 200.898438 1051.769531 416.898438 C 1103.359375 594.671875 1117.511719 766.488281 1092.691406 913.800781 C 1065.589844 1074.578125 991.71875 1200.070312 879.050781 1276.710938 C 695.261719 1401.769531 628.191406 1595.351562 690.1875 1821.820312 C 774.070312 2128.230469 1117.011719 2474.871094 1524.789062 2500.601562 C 1921.25 2525.628906 2262.539062 2242.96875 2485.839844 1704.710938 C 2613.320312 1397.429688 2757.601562 1235.378906 2926.941406 1209.320312 C 3224.609375 1163.460938 3552.671875 1554.058594 3869.929688 1931.761719 C 4017.949219 2107.96875 4170.988281 2290.171875 4316.28125 2421.082031 C 4478.601562 2567.332031 4615.058594 2633.921875 4733.648438 2624.550781 C 4848.351562 2615.511719 4948.210938 2537.78125 5038.929688 2386.898438 L 5042.148438 2388.828125 C 4950.75 2540.820312 4849.929688 2619.148438 4733.949219 2628.289062 C 4726.570312 2628.871094 4719.121094 2629.160156 4711.609375 2629.160156 "/>
<path fill-rule="nonzero" fill="rgb(58.808899%, 77.731323%, 84.506226%)" fill-opacity="1" d="M 4764.960938 2661.390625 C 4648.511719 2661.390625 4514.949219 2594.601562 4357.671875 2457.929688 C 4207.480469 2327.398438 4048.878906 2145.589844 3895.5 1969.761719 C 3567.039062 1593.230469 3227.519531 1203.851562 2925.21875 1252.460938 C 2757.480469 1279.421875 2615.429688 1436.21875 2490.980469 1731.800781 C 2371.578125 2015.328125 2218.96875 2225.21875 2037.410156 2355.648438 C 1878.679688 2469.679688 1702.898438 2520.539062 1514.960938 2506.71875 C 1322.929688 2492.640625 1126.609375 2408.75 962.167969 2270.488281 C 807.078125 2140.101562 693.949219 1971.480469 651.789062 1807.878906 C 596.167969 1592.011719 665.066406 1408.261719 845.800781 1290.46875 C 1056.660156 1153.050781 1123.359375 855.558594 1024.210938 494.671875 C 964.585938 277.640625 847.457031 62.878906 702.851562 -94.53125 C 541.367188 -270.320312 357.992188 -367.300781 172.546875 -374.96875 C -17.261719 -382.808594 -201.179688 -297.640625 -373.984375 -121.78125 C -572.039062 79.78125 -751.4375 397.78125 -907.195312 823.378906 L -910.714844 822.089844 C -754.773438 395.980469 -575.09375 77.53125 -376.660156 -124.410156 C -203.078125 -301.058594 -18.3125 -386.660156 172.703125 -378.71875 C 359.164062 -371 543.441406 -273.609375 705.613281 -97.070312 C 850.609375 60.769531 968.050781 276.089844 1027.828125 493.679688 C 1073.910156 661.421875 1084.429688 822 1058.261719 958.058594 C 1029.699219 1106.480469 956.945312 1222.511719 847.847656 1293.609375 C 668.570312 1410.449219 600.234375 1592.75 655.425781 1806.941406 C 735.378906 2117.230469 1086.839844 2471.570312 1515.238281 2502.980469 C 1919.898438 2532.699219 2265.199219 2258.261719 2487.519531 1730.351562 C 2612.53125 1433.46875 2755.5 1275.941406 2924.628906 1248.75 C 3228.929688 1199.859375 3569.199219 1590 3898.328125 1967.300781 C 4051.621094 2143.03125 4210.140625 2324.738281 4360.128906 2455.089844 C 4527.71875 2600.738281 4667.988281 2666.648438 4789.121094 2656.648438 C 4903.800781 2647.160156 5003.101562 2571.859375 5092.699219 2426.429688 L 5095.898438 2428.398438 C 5005.621094 2574.910156 4905.378906 2650.789062 4789.429688 2660.390625 C 4781.359375 2661.058594 4773.199219 2661.390625 4764.960938 2661.390625 "/>
<path fill-rule="nonzero" fill="rgb(64.537048%, 73.670959%, 90.124512%)" fill-opacity="1" d="M 4819.710938 2693.621094 C 4701.089844 2693.621094 4564.328125 2627.378906 4402.789062 2491.871094 C 4247.78125 2361.851562 4083.589844 2180.46875 3924.800781 2005.050781 C 3584.128906 1628.730469 3231.78125 1239.609375 2923.03125 1291.28125 C 2755.621094 1319.300781 2614.921875 1471.648438 2492.890625 1757.039062 C 2373.910156 2035.261719 2220.25 2240.378906 2036.191406 2366.71875 C 1875.328125 2477.128906 1696.5 2524.960938 1504.640625 2508.898438 C 1305.550781 2492.238281 1102.238281 2404.890625 932.171875 2262.949219 C 771.382812 2128.75 656.484375 1957.929688 616.945312 1794.28125 C 567.585938 1590.011719 637.648438 1416.851562 814.21875 1306.71875 C 1017.21875 1180.121094 1086.359375 903.671875 999.160156 567.210938 C 942.003906 346.671875 821.957031 125.28125 669.8125 -40.210938 C 551.585938 -168.800781 358.96875 -324.699219 112.761719 -337.128906 C -80.601562 -346.859375 -266.984375 -265.070312 -441.175781 -93.929688 C -640.816406 102.210938 -820.296875 413.089844 -974.621094 830.070312 L -978.136719 828.761719 C -823.617188 411.261719 -643.84375 99.921875 -443.804688 -96.609375 C -268.839844 -268.511719 -81.507812 -350.691406 112.949219 -340.871094 C 360.425781 -328.378906 553.867188 -171.859375 672.570312 -42.75 C 825.121094 123.179688 945.480469 345.160156 1002.789062 566.269531 C 1043.710938 724.160156 1050.851562 874.050781 1023.441406 999.730469 C 993.144531 1138.679688 923.421875 1243.039062 816.203125 1309.898438 C 641.113281 1419.109375 571.640625 1590.820312 620.589844 1793.398438 C 659.945312 1956.28125 774.390625 2126.371094 934.570312 2260.070312 C 1104.058594 2401.519531 1306.628906 2488.570312 1504.960938 2505.167969 C 1744.308594 2525.230469 2190.550781 2454.46875 2489.441406 1755.570312 C 2612.019531 1468.910156 2753.640625 1315.828125 2922.410156 1287.578125 C 3233.269531 1235.578125 3586.230469 1625.460938 3927.570312 2002.539062 C 4086.28125 2177.851562 4250.390625 2359.140625 4405.199219 2489 C 4578.179688 2634.089844 4722.371094 2699.359375 4846.019531 2688.75 C 4960.601562 2678.851562 5059.308594 2605.929688 5147.800781 2465.851562 L 5150.96875 2467.851562 C 5061.808594 2609 4962.171875 2682.480469 4846.339844 2692.480469 C 4837.570312 2693.238281 4828.691406 2693.621094 4819.710938 2693.621094 "/>
<path fill-rule="nonzero" fill="rgb(51.780701%, 74.44458%, 91.564941%)" fill-opacity="1" d="M 4875.910156 2725.859375 C 4755.070312 2725.859375 4615.070312 2660.121094 4449.148438 2525.691406 C 4289.230469 2396.128906 4119.300781 2215.101562 3954.96875 2040.039062 C 3601.761719 1663.769531 3236.5 1274.71875 2920.960938 1329.488281 C 2754.039062 1358.488281 2614.730469 1506.460938 2495.089844 1781.871094 C 2376.429688 2055 2221.550781 2255.480469 2034.761719 2377.75 C 1871.601562 2484.550781 1689.5 2529.320312 1493.519531 2510.859375 C 1287.460938 2491.429688 1077.289062 2400.71875 901.726562 2255.421875 C 735.34375 2117.730469 618.808594 1945.160156 582 1781.96875 C 538.386719 1588.621094 609.515625 1425.410156 782.28125 1322.390625 C 981.011719 1203.890625 1050.519531 953.46875 972.996094 635.339844 C 918.675781 412.449219 795.921875 185.339844 636.203125 12.25 C 461.179688 -177.421875 253.914062 -288.488281 52.585938 -300.511719 C -144.472656 -312.269531 -333.445312 -233.820312 -509.132812 -67.351562 C -710.503906 123.449219 -890.179688 427.378906 -1043.171875 836 L -1046.679688 834.679688 C -893.488281 425.519531 -713.5 121.121094 -511.710938 -70.078125 C -335.242188 -237.28125 -145.316406 -316.050781 52.808594 -304.25 C 255.109375 -292.179688 463.273438 -180.679688 638.960938 9.710938 C 799.09375 183.25 922.171875 410.960938 976.636719 634.460938 C 1012.789062 782.808594 1016.839844 922.640625 988.328125 1038.828125 C 956.851562 1167.128906 888.171875 1263.609375 784.199219 1325.609375 C 612.945312 1427.730469 542.429688 1589.511719 585.65625 1781.148438 C 622.285156 1943.539062 738.359375 2115.359375 904.117188 2252.539062 C 1079.109375 2397.359375 1288.550781 2487.769531 1493.871094 2507.128906 C 1738.550781 2530.179688 2193.589844 2466.460938 2491.648438 1780.378906 C 2611.839844 1503.71875 2752.058594 1355.03125 2920.320312 1325.800781 C 3237.839844 1270.660156 3603.808594 1660.46875 3957.710938 2037.46875 C 4121.949219 2212.441406 4291.78125 2393.371094 4451.511719 2522.78125 C 4629.980469 2667.378906 4778.128906 2732.179688 4904.378906 2720.851562 C 5018.789062 2710.589844 5116.890625 2640.050781 5204.28125 2505.167969 L 5207.421875 2507.210938 C 5119.371094 2643.121094 5020.351562 2714.21875 4904.710938 2724.589844 C 4895.238281 2725.441406 4885.628906 2725.859375 4875.910156 2725.859375 "/>
<path fill-rule="nonzero" fill="rgb(54.151917%, 64.125061%, 85.697937%)" fill-opacity="1" d="M 4933.578125 2758.101562 C 4810.480469 2758.101562 4667.160156 2692.828125 4496.761719 2559.390625 C 4331.820312 2430.210938 4156.03125 2249.488281 3986.03125 2074.71875 C 3619.949219 1698.359375 3241.371094 1309.191406 2919.050781 1367.128906 C 2752.738281 1397.03125 2614.890625 1540.679688 2497.601562 1806.308594 C 2379.148438 2074.570312 2222.859375 2270.519531 2033.078125 2388.730469 C 1867.398438 2491.941406 1681.800781 2533.589844 1481.480469 2512.539062 C 1268.570312 2490.179688 1051.691406 2396.179688 870.804688 2247.878906 C 698.964844 2106.988281 580.90625 1933.109375 546.910156 1770.828125 C 528.515625 1683.039062 534.988281 1602.089844 566.140625 1530.238281 C 599.808594 1452.578125 661.640625 1387.71875 749.921875 1337.441406 C 941.980469 1228.070312 1013.351562 995.398438 945.71875 699.089844 C 845.527344 260.109375 452.429688 -233.359375 -7.945312 -265.121094 C -208.777344 -278.980469 -400.53125 -203.949219 -577.851562 -42.101562 C -781.105469 143.421875 -961.109375 440.570312 -1112.871094 841.101562 L -1116.371094 839.769531 C -964.40625 438.691406 -784.070312 141.058594 -580.378906 -44.871094 C -402.277344 -207.429688 -209.589844 -282.761719 -7.6875 -268.871094 C 454.402344 -236.980469 848.886719 257.96875 949.375 698.261719 C 1017.398438 996.289062 945.375 1230.449219 751.777344 1340.699219 C 584.039062 1436.230469 512.589844 1588.710938 550.578125 1770.058594 C 584.40625 1931.53125 701.988281 2104.628906 873.183594 2244.980469 C 1053.511719 2392.828125 1269.679688 2486.53125 1481.871094 2508.820312 C 1732.210938 2535.082031 2196.628906 2478.621094 2494.179688 1804.800781 C 2612 1537.949219 2750.761719 1393.578125 2918.378906 1363.441406 C 3242.691406 1305.128906 3621.949219 1695.039062 3988.71875 2072.109375 C 4158.628906 2246.789062 4334.328125 2427.417969 4499.070312 2556.429688 C 4683.171875 2700.601562 4835.289062 2764.871094 4964.210938 2752.949219 C 5078.390625 2742.378906 5175.851562 2674.148438 5262.160156 2544.371094 L 5265.289062 2546.449219 C 5178.300781 2677.230469 5079.929688 2746 4964.550781 2756.691406 C 4954.378906 2757.628906 4944.039062 2758.101562 4933.578125 2758.101562 "/>
<path fill-rule="nonzero" fill="rgb(66.375732%, 68.518066%, 84.45282%)" fill-opacity="1" d="M 4992.71875 2790.378906 C 4867.308594 2790.378906 4720.601562 2725.519531 4545.628906 2592.988281 C 4375.558594 2464.160156 4193.78125 2283.679688 4017.980469 2109.140625 C 3638.660156 1732.53125 3246.46875 1343.121094 2917.230469 1404.191406 C 2751.691406 1434.910156 2615.328125 1574.300781 2500.371094 1830.339844 C 2382 2093.960938 2224.109375 2285.511719 2031.089844 2399.671875 C 1862.679688 2499.269531 1673.371094 2537.730469 1468.421875 2513.960938 C 1248.78125 2488.488281 1025.371094 2391.320312 839.347656 2240.351562 C 662.203125 2096.589844 542.742188 1921.820312 511.601562 1760.871094 C 495.453125 1677.410156 503.320312 1600.761719 534.980469 1533.03125 C 569.136719 1459.980469 630.40625 1399.058594 717.09375 1351.960938 C 903.105469 1250.890625 976.09375 1034.601562 917.339844 758.53125 C 822.003906 310.609375 402.988281 -193.828125 -68.828125 -230.839844 C -273.65625 -246.929688 -468.273438 -175.308594 -647.359375 -18.039062 C -852.65625 162.261719 -1033.121094 452.78125 -1183.75 845.46875 L -1187.25 844.121094 C -1036.410156 450.859375 -855.59375 159.839844 -649.832031 -20.851562 C -469.957031 -178.820312 -274.382812 -250.738281 -68.535156 -234.578125 C 404.953125 -197.441406 825.390625 308.511719 921.003906 757.75 C 948.808594 888.390625 947.464844 1010.078125 917.121094 1109.660156 C 883.710938 1219.308594 817.011719 1301.929688 718.882812 1355.25 C 508.023438 1469.820312 491.777344 1638.671875 515.28125 1760.148438 C 546.261719 1920.261719 665.242188 2094.21875 841.710938 2237.441406 C 1027.191406 2387.96875 1249.910156 2484.851562 1468.851562 2510.238281 C 1725.210938 2539.96875 2199.640625 2490.96875 2496.949219 1828.800781 C 2612.449219 1571.558594 2749.699219 1431.460938 2916.550781 1400.5 C 3247.71875 1339.039062 3640.621094 1729.191406 4020.621094 2106.480469 C 4196.328125 2280.929688 4378.019531 2461.332031 4547.898438 2590 C 4737.730469 2733.800781 4893.960938 2797.601562 5025.5 2785.089844 C 5139.390625 2774.25 5236.179688 2708.300781 5321.429688 2583.46875 L 5324.53125 2585.589844 C 5238.621094 2711.390625 5140.921875 2777.871094 5025.859375 2788.820312 C 5014.980469 2789.859375 5003.929688 2790.378906 4992.71875 2790.378906 "/>
<path fill-rule="nonzero" fill="rgb(35.203552%, 41.694641%, 73.777771%)" fill-opacity="1" d="M 5053.410156 2822.699219 C 4925.648438 2822.699219 4775.46875 2758.230469 4595.789062 2626.5 C 4420.480469 2497.960938 4232.558594 2317.648438 4050.828125 2143.28125 C 3657.921875 1766.289062 3251.621094 1376.46875 2915.570312 1440.679688 C 2750.910156 1472.140625 2616.109375 1607.351562 2503.441406 1854.011719 C 2385.039062 2113.21875 2225.339844 2300.480469 2028.769531 2410.570312 C 1857.398438 2506.550781 1664.101562 2541.71875 1454.261719 2515.03125 C 1228.03125 2486.28125 998.289062 2386.03125 807.347656 2232.75 C 625.09375 2086.429688 504.351562 1911.179688 476.082031 1751.929688 C 455.433594 1635.589844 474.726562 1474.179688 683.894531 1365.878906 C 867.074219 1271.039062 939.550781 1074.988281 887.976562 813.828125 C 800.324219 370.03125 360.6875 -154.558594 -130.039062 -197.738281 C -338.945312 -216.101562 -536.664062 -148 -717.664062 4.738281 C -925.183594 179.859375 -1106.261719 463.910156 -1255.851562 849.011719 L -1259.351562 847.648438 C -1109.519531 461.960938 -928.089844 177.398438 -720.082031 1.871094 C -538.296875 -151.539062 -339.648438 -219.949219 -129.707031 -201.480469 C 99.546875 -181.300781 335.339844 -54.429688 534.234375 155.769531 C 717.027344 348.949219 847.300781 588.539062 891.65625 813.109375 C 916.203125 937.410156 912.65625 1047.941406 881.113281 1141.640625 C 846.929688 1243.179688 781.152344 1319.75 685.617188 1369.210938 C 521.65625 1454.101562 450.480469 1586.210938 479.777344 1751.28125 C 507.886719 1909.640625 628.136719 2084.070312 809.695312 2229.820312 C 1000.101562 2382.679688 1229.179688 2482.648438 1454.738281 2511.308594 C 1717.460938 2544.710938 2202.648438 2503.511719 2500.03125 1852.460938 C 2613.238281 1604.609375 2748.929688 1468.710938 2914.859375 1437 C 3252.871094 1372.410156 3659.820312 1762.929688 4053.421875 2140.578125 C 4235.070312 2314.871094 4422.898438 2495.082031 4598.011719 2623.46875 C 4793.710938 2766.960938 4954.078125 2830.359375 5088.320312 2817.28125 C 5201.851562 2806.21875 5297.96875 2742.519531 5382.171875 2622.53125 L 5385.238281 2624.679688 C 5300.371094 2745.621094 5203.359375 2809.839844 5088.679688 2821.011719 C 5077.128906 2822.140625 5065.351562 2822.699219 5053.410156 2822.699219 "/>
<path fill-rule="nonzero" fill="rgb(41.798401%, 81.256104%, 95.81604%)" fill-opacity="1" d="M 5115.660156 2855.078125 C 4985.488281 2855.078125 4831.75 2790.941406 4647.25 2659.910156 C 4466.601562 2531.609375 4272.398438 2351.429688 4084.601562 2177.171875 C 3677.738281 1799.660156 3257.019531 1409.300781 2914.058594 1476.621094 C 2750.441406 1508.738281 2617.230469 1639.808594 2506.820312 1877.320312 C 2388.25 2132.351562 2226.511719 2315.421875 2026.070312 2421.441406 C 1851.460938 2513.800781 1653.898438 2545.539062 1438.859375 2515.78125 C 1206.210938 2483.589844 970.347656 2380.351562 774.734375 2225.089844 C 587.585938 2076.539062 465.679688 1901.179688 440.28125 1743.96875 C 414.699219 1585.648438 487.300781 1459.53125 650.222656 1379.238281 C 828.382812 1291.449219 902.039062 1108.878906 857.632812 865.171875 C 776.320312 418.960938 310.363281 -116.710938 -191.523438 -165.730469 C -404.761719 -186.539062 -605.699219 -121.949219 -788.765625 26.289062 C -998.707031 196.28125 -1180.539062 474.03125 -1329.21875 851.800781 L -1332.710938 850.429688 C -1183.789062 472.039062 -1001.578125 193.78125 -791.125 23.371094 C -607.261719 -125.5 -405.386719 -190.378906 -191.15625 -169.460938 C 46.800781 -146.21875 291.535156 -14.738281 497.964844 200.738281 C 685.40625 396.410156 821.238281 644.539062 861.320312 864.5 C 906.054688 1110 831.675781 1294 651.882812 1382.601562 C 490.582031 1462.089844 418.691406 1586.839844 443.984375 1743.371094 C 493.203125 2048.03125 929.351562 2441.5 1439.378906 2512.070312 C 1708.949219 2549.371094 2205.628906 2516.300781 2503.421875 1875.738281 C 2614.371094 1637.070312 2748.449219 1505.308594 2913.339844 1472.949219 C 3258.21875 1405.230469 3679.601562 1796.28125 4087.148438 2174.429688 C 4274.871094 2348.601562 4468.96875 2528.699219 4649.429688 2656.851562 C 4851.109375 2800.078125 5015.710938 2863.140625 5152.648438 2849.519531 C 5265.769531 2838.300781 5361.199219 2776.789062 5444.378906 2661.5 L 5447.421875 2663.699219 C 5363.570312 2779.910156 5267.269531 2841.921875 5153.019531 2853.25 C 5140.800781 2854.460938 5128.328125 2855.078125 5115.660156 2855.078125 "/>
<path fill-rule="nonzero" fill="rgb(54.685974%, 75.302124%, 83.251953%)" fill-opacity="1" d="M 5179.511719 2887.53125 C 5046.890625 2887.53125 4889.488281 2823.671875 4700.050781 2693.25 C 4513.941406 2565.140625 4313.328125 2385.019531 4119.320312 2210.820312 C 3698.140625 1832.648438 3262.640625 1441.621094 2912.730469 1511.988281 C 2750.25 1544.671875 2618.671875 1671.671875 2510.480469 1900.230469 C 2210.898438 2533.082031 1699.949219 2557.710938 1422.070312 2516.101562 C 1183.160156 2480.300781 941.441406 2374.179688 741.433594 2217.269531 C 549.640625 2066.808594 426.699219 1891.699219 404.132812 1736.851562 C 382.222656 1586.480469 455.507812 1467.238281 616.070312 1392.019531 C 789.726562 1310.679688 864.414062 1140.46875 826.378906 912.738281 C 751.578125 464.980469 273.972656 -78.140625 -253.261719 -134.78125 C -584.109375 -170.300781 -1052.25 -27.640625 -1403.859375 853.828125 L -1407.339844 852.441406 C -1259.21875 481.101562 -1076.070312 208.988281 -862.96875 43.671875 C -676.863281 -100.710938 -471.589844 -161.988281 -252.863281 -138.5 C -6.355469 -112.019531 247.167969 23.800781 461 243.929688 C 655.691406 444.359375 793.664062 694.148438 830.074219 912.128906 C 868.417969 1141.660156 792.980469 1313.300781 617.660156 1395.421875 C 458.75 1469.859375 386.195312 1587.738281 407.84375 1736.308594 C 430.273438 1890.21875 552.703125 2064.449219 743.75 2214.320312 C 940.359375 2368.558594 1187.800781 2477.199219 1422.621094 2512.378906 C 1699.488281 2553.851562 2208.539062 2529.28125 2507.089844 1898.621094 C 2615.828125 1668.921875 2748.269531 1541.25 2911.988281 1508.308594 C 3263.789062 1437.550781 3699.960938 1829.238281 4121.828125 2208.03125 C 4315.738281 2382.148438 4516.269531 2562.191406 4702.171875 2690.171875 C 4909.960938 2833.210938 5078.871094 2895.890625 5218.519531 2881.851562 C 5331.179688 2870.5 5425.898438 2811.171875 5508.089844 2700.441406 L 5511.101562 2702.679688 C 5428.25 2814.300781 5332.671875 2874.128906 5218.898438 2885.578125 C 5206.019531 2886.878906 5192.890625 2887.53125 5179.511719 2887.53125 "/>
<path fill-rule="nonzero" fill="rgb(63.990784%, 64.767456%, 85.58197%)" fill-opacity="1" d="M 5244.980469 2920.078125 C 5109.839844 2920.078125 4948.699219 2856.460938 4754.160156 2726.550781 C 4562.5 2598.558594 4355.328125 2418.441406 4154.988281 2244.25 C 3719.109375 1865.28125 3268.429688 1473.421875 2911.558594 1546.820312 C 2750.351562 1579.988281 2620.449219 1702.980469 2514.441406 1922.820312 C 2213.71875 2546.390625 1689.449219 2562.109375 1403.710938 2515.960938 C 1162.300781 2476.980469 908.496094 2365.210938 707.371094 2209.308594 C 511.21875 2057.25 387.378906 1882.738281 367.605469 1730.539062 C 349.03125 1587.570312 422.980469 1474.75 581.453125 1404.269531 C 751.089844 1328.828125 826.667969 1169.921875 794.269531 956.789062 C 727.59375 518.171875 228.40625 -41.160156 -315.25 -104.910156 C -653.335938 -144.558594 -1129.851562 -10.210938 -1479.800781 855.019531 L -1483.269531 853.621094 C -1335.839844 489.089844 -1151.589844 223 -935.628906 62.71875 C -747.105469 -77.179688 -538.21875 -134.828125 -314.8125 -108.628906 C 230.441406 -44.691406 731.101562 516.300781 797.976562 956.230469 C 830.652344 1171.179688 754.300781 1331.511719 582.976562 1407.699219 C 426.175781 1477.441406 352.988281 1588.910156 371.324219 1730.058594 C 390.972656 1881.289062 514.292969 2054.890625 709.671875 2206.339844 C 910.3125 2361.878906 1163.5 2473.378906 1404.308594 2512.261719 C 1689.03125 2558.21875 2211.410156 2542.570312 2511.058594 1921.191406 C 2617.609375 1700.230469 2748.371094 1576.570312 2910.808594 1543.148438 C 3269.441406 1469.359375 3720.878906 1861.859375 4157.441406 2241.429688 C 4357.699219 2415.539062 4564.769531 2595.582031 4756.238281 2723.429688 C 4970.261719 2866.339844 5143.5 2928.730469 5285.929688 2914.289062 C 5398.078125 2902.878906 5492.078125 2845.671875 5573.289062 2739.378906 L 5576.269531 2741.660156 C 5494.398438 2848.820312 5399.550781 2906.5 5286.308594 2918.019531 C 5272.808594 2919.390625 5259.039062 2920.078125 5244.980469 2920.078125 "/>
<path fill-rule="nonzero" fill="rgb(33.256531%, 60.189819%, 85.023499%)" fill-opacity="1" d="M 5312.148438 2952.738281 C 5174.429688 2952.738281 5009.460938 2889.308594 4809.671875 2759.808594 C 4612.328125 2631.898438 4398.46875 2451.738281 4191.648438 2277.5 C 3740.679688 1897.589844 3274.339844 1504.75 2910.578125 1581.140625 C 2750.730469 1614.710938 2622.539062 1733.761719 2518.679688 1945.101562 C 2398.789062 2189.019531 2229.320312 2360.109375 2014.980469 2453.648438 C 1831.421875 2533.761719 1613.121094 2555.082031 1383.660156 2515.320312 C 1136.5 2472.5 877.289062 2357.980469 672.496094 2201.121094 C 472.304688 2047.78125 347.707031 1874.210938 330.65625 1724.898438 C 315.117188 1588.828125 389.695312 1482 546.332031 1415.960938 C 712.386719 1345.949219 788.757812 1197.371094 761.367188 997.589844 C 732.355469 785.941406 590.671875 535.539062 382.363281 327.78125 C 154.726562 100.738281 -115.09375 -42.679688 -377.402344 -76.039062 C -723.1875 -120.050781 -1208.511719 5.890625 -1557.03125 855.5 L -1560.511719 854.078125 C -1413.648438 496.089844 -1228.121094 235.859375 -1009.070312 80.609375 C -817.953125 -54.859375 -605.277344 -108.820312 -376.929688 -79.761719 C -113.804688 -46.289062 156.789062 97.5 385.007812 325.121094 C 593.878906 533.449219 735.964844 784.648438 765.085938 997.078125 C 778.378906 1094.050781 767.976562 1178.988281 734.175781 1249.539062 C 697.808594 1325.449219 635.097656 1382.609375 547.785156 1419.421875 C 392.84375 1484.738281 319.050781 1590.230469 334.382812 1724.480469 C 351.316406 1872.78125 475.386719 2045.429688 674.777344 2198.140625 C 879.105469 2354.640625 1137.710938 2468.898438 1384.300781 2511.628906 C 1677.429688 2562.398438 2214.171875 2556.128906 2515.308594 1943.449219 C 2619.71875 1731 2748.761719 1611.289062 2909.808594 1577.46875 C 3275.351562 1500.71875 3742.421875 1894.148438 4194.058594 2274.640625 C 4400.800781 2448.789062 4614.570312 2628.878906 4811.699219 2756.660156 C 5032.058594 2899.488281 5209.738281 2961.671875 5354.929688 2946.839844 C 5466.539062 2935.421875 5559.800781 2880.289062 5640.050781 2778.308594 L 5643 2780.628906 C 5562.089844 2883.449219 5467.988281 2939.039062 5355.308594 2950.570312 C 5341.230469 2952.011719 5326.828125 2952.738281 5312.148438 2952.738281 "/>
<path fill-rule="nonzero" fill="rgb(63.819885%, 87.980652%, 89.929199%)" fill-opacity="1" d="M 5380.988281 2985.488281 C 5240.640625 2985.488281 5071.710938 2922.199219 4866.5 2793 C 4663.390625 2665.109375 4442.691406 2484.851562 4229.25 2310.519531 C 3762.839844 1929.558594 3280.570312 1535.648438 2909.789062 1614.910156 C 2751.429688 1648.78125 2624.980469 1763.941406 2523.21875 1966.988281 C 2402.589844 2207.691406 2229.929688 2374.980469 2010.039062 2464.238281 C 1821.96875 2540.570312 1597.769531 2557.800781 1361.679688 2514.058594 C 1109.019531 2467.261719 844.785156 2350.101562 636.726562 2192.640625 C 432.863281 2038.351562 307.675781 1866.03125 293.269531 1719.851562 C 280.488281 1590.199219 355.683594 1488.96875 510.730469 1427.101562 C 719.492188 1343.789062 743.972656 1168.109375 727.75 1035.410156 C 702.296875 827.199219 558.644531 576.96875 343.476562 366.039062 C 108.882812 136.070312 -169.234375 -11.03125 -439.636719 -48.140625 C -793.5 -96.699219 -1288.25 20.570312 -1635.691406 855.160156 L -1639.160156 853.71875 C -1492.75 502.03125 -1305.738281 247.519531 -1083.328125 97.28125 C -889.382812 -33.730469 -672.648438 -83.910156 -439.128906 -51.859375 C -167.929688 -14.628906 110.933594 132.828125 346.101562 363.359375 C 561.855469 574.871094 705.921875 825.929688 731.472656 1034.949219 C 742.648438 1126.359375 730.960938 1206.171875 696.738281 1272.171875 C 659.980469 1343.070312 597.863281 1396.371094 512.121094 1430.589844 C 358.789062 1491.769531 284.402344 1591.671875 297 1719.480469 C 327.632812 2030.25 845.378906 2414.609375 1362.359375 2510.378906 C 1664.570312 2566.359375 2216.808594 2569.988281 2519.871094 1965.308594 C 2622.171875 1761.179688 2749.449219 1645.359375 2909 1611.238281 C 3281.519531 1531.558594 3764.519531 1926.101562 4231.621094 2307.609375 C 4444.96875 2481.871094 4665.578125 2662.058594 4868.5 2789.828125 C 5095.328125 2932.640625 5277.519531 2994.699219 5425.5 2979.511719 C 5536.539062 2968.121094 5629.078125 2915.03125 5708.398438 2817.21875 L 5711.308594 2819.589844 C 5631.328125 2918.210938 5537.960938 2971.738281 5425.878906 2983.238281 C 5411.25 2984.738281 5396.28125 2985.488281 5380.988281 2985.488281 "/>
<path fill-rule="nonzero" fill="rgb(48.791504%, 60.035706%, 83.917236%)" fill-opacity="1" d="M 5450.480469 3018.441406 C 5352.800781 3018.441406 5243.070312 2989.488281 5116.300781 2930.410156 C 4855.03125 2808.648438 4556.519531 2572.109375 4267.839844 2343.359375 C 3785.578125 1961.210938 3286.910156 1566.089844 2909.210938 1648.148438 C 2752.421875 1682.21875 2627.738281 1793.578125 2528.050781 1988.570312 C 2406.488281 2226.289062 2230.289062 2389.859375 2004.308594 2474.71875 C 1811.308594 2547.199219 1580.738281 2560.148438 1337.550781 2512.128906 C 1079.679688 2461.230469 810.828125 2341.570312 599.941406 2183.828125 C 392.824219 2028.921875 267.234375 1858.160156 255.371094 1715.320312 C 245.097656 1591.648438 320.898438 1495.640625 474.582031 1437.691406 C 637 1376.429688 712.675781 1249.429688 693.421875 1070.410156 C 671.429688 865.980469 525.84375 616.410156 303.972656 402.800781 C 62.601562 170.421875 -223.613281 19.851562 -501.957031 -21.179688 C -864.371094 -74.601562 -1369.121094 33.890625 -1715.730469 854.070312 L -1719.179688 852.609375 C -1573.109375 506.949219 -1384.429688 258.039062 -1158.390625 112.78125 C -961.40625 -13.789062 -740.371094 -60.121094 -501.40625 -24.890625 C -357.402344 -3.660156 -211.144531 46.839844 -66.699219 125.230469 C 64.890625 196.640625 193.96875 291.691406 306.574219 400.101562 C 529.058594 614.300781 675.066406 864.730469 697.148438 1070.011719 C 716.605469 1250.921875 640.101562 1379.269531 475.90625 1441.191406 C 323.957031 1498.5 248.988281 1593.179688 259.109375 1715.011719 C 270.882812 1856.769531 395.929688 2026.558594 602.1875 2180.828125 C 812.640625 2338.238281 1080.929688 2457.648438 1338.28125 2508.449219 C 1650.289062 2570.039062 2219.300781 2584.179688 2524.710938 1986.859375 C 2624.949219 1790.808594 2750.460938 1678.808594 2908.398438 1644.480469 C 3287.898438 1561.988281 3787.230469 1957.730469 4270.171875 2340.421875 C 4558.679688 2569.039062 4857.011719 2805.441406 5117.878906 2927.011719 C 5412.988281 3064.550781 5622.851562 3042.03125 5778.308594 2856.160156 L 5781.191406 2858.558594 C 5698.390625 2957.570312 5600.570312 3009.519531 5482.148438 3017.398438 C 5471.738281 3018.089844 5461.179688 3018.441406 5450.480469 3018.441406 "/>
<path fill-rule="nonzero" fill="rgb(63.691711%, 65.550232%, 83.274841%)" fill-opacity="1" d="M 5522.851562 3051.46875 C 5422.191406 3051.46875 5308.640625 3021.941406 5176.820312 2961.578125 C 4909.710938 2839.28125 4603.550781 2603.769531 4307.46875 2376.011719 C 3808.988281 1992.550781 3293.519531 1596 2908.871094 1680.871094 C 2753.761719 1715.070312 2630.878906 1822.671875 2533.210938 2009.828125 C 2410.550781 2244.839844 2230.390625 2404.738281 1997.71875 2485.082031 C 1799.289062 2553.601562 1561.828125 2562.019531 1311.019531 2509.410156 C 1048.25 2454.300781 775.261719 2332.28125 562.050781 2174.621094 C 352.15625 2019.421875 226.367188 1850.511719 216.941406 1711.210938 C 208.949219 1593.101562 285.355469 1501.980469 437.898438 1447.710938 C 597.847656 1390.800781 674.097656 1271.550781 658.40625 1102.851562 C 639.769531 902.46875 492.296875 653.980469 263.910156 438.148438 C 19.570312 207.238281 -282.28125 49.308594 -564.246094 4.871094 C -935.664062 -53.660156 -1451.070312 45.808594 -1797.148438 852.171875 L -1800.589844 850.691406 C -1654.730469 510.808594 -1464.171875 267.371094 -1234.199219 127.109375 C -1033.949219 4.980469 -808.339844 -37.398438 -563.664062 1.171875 C -415.8125 24.46875 -265.527344 76.898438 -116.972656 157 C 18.371094 229.980469 150.96875 326.261719 266.484375 435.421875 C 495.515625 651.859375 643.421875 901.238281 662.144531 1102.5 C 678.011719 1273.101562 600.902344 1393.691406 439.15625 1451.238281 C 288.363281 1504.890625 212.816406 1594.699219 220.683594 1710.960938 C 230.03125 1849.160156 355.269531 2017.058594 564.28125 2171.609375 C 777.070312 2328.949219 1049.53125 2450.738281 1311.78125 2505.738281 C 1634.398438 2573.417969 2221.628906 2598.730469 2529.878906 2008.089844 C 2628.101562 1819.890625 2751.800781 1711.660156 2908.058594 1677.199219 C 3294.410156 1591.988281 3810.589844 1989.050781 4309.761719 2373.039062 C 4605.671875 2600.671875 4911.660156 2836.050781 5178.390625 2958.171875 C 5480.148438 3096.351562 5693.53125 3076.308594 5849.898438 2895.121094 L 5852.738281 2897.570312 C 5769.449219 2994.078125 5670.421875 3044.179688 5549.988281 3050.730469 C 5541.050781 3051.21875 5532 3051.46875 5522.851562 3051.46875 "/>
<path fill-rule="nonzero" fill="rgb(29.949951%, 36.875916%, 70.748901%)" fill-opacity="1" d="M 5597.019531 3084.671875 C 5493.289062 3084.671875 5375.78125 3054.519531 5238.71875 2992.839844 C 4965.671875 2869.949219 4651.730469 2635.371094 4348.128906 2408.519531 C 3833 2023.609375 3300.339844 1625.589844 2908.75 1713.050781 C 2755.390625 1747.300781 2634.328125 1851.21875 2538.640625 2030.769531 C 2414.679688 2263.339844 2230.128906 2419.640625 1990.101562 2495.308594 C 1785.730469 2559.75 1540.789062 2563.378906 1281.800781 2505.820312 C 1014.511719 2446.417969 737.921875 2322.179688 522.949219 2164.96875 C 310.796875 2009.820312 185.050781 1843.070312 177.957031 1707.488281 C 172.046875 1594.578125 249.0625 1508.050781 400.671875 1457.261719 C 558.496094 1404.378906 635.300781 1292.238281 622.777344 1132.949219 C 607.363281 936.839844 458.039062 689.839844 223.347656 472.21875 C -27.234375 239.871094 -336.96875 78.730469 -626.433594 30.109375 C -1007.429688 -33.871094 -1534.21875 56.339844 -1880.101562 849.480469 L -1883.539062 847.980469 C -1737.730469 513.640625 -1545.050781 275.539062 -1310.828125 140.300781 C -1107.03125 22.621094 -876.558594 -15.691406 -625.8125 26.421875 C -335.640625 75.148438 -25.207031 236.628906 225.898438 469.46875 C 461.265625 687.710938 611.03125 935.628906 626.519531 1132.660156 C 639.1875 1293.851562 561.503906 1407.328125 401.863281 1460.808594 C 252.019531 1511.019531 175.886719 1596.25 181.699219 1707.300781 C 196.675781 1993.429688 731.695312 2379.71875 1282.609375 2502.160156 C 1616.710938 2576.417969 2223.710938 2613.679688 2535.328125 2029.011719 C 2631.558594 1848.429688 2753.441406 1743.890625 2907.929688 1709.390625 C 3301.230469 1621.570312 3834.578125 2020.101562 4350.371094 2405.511719 C 4653.808594 2632.238281 4967.578125 2866.699219 5240.261719 2989.421875 C 5548.800781 3128.289062 5765.78125 3110.710938 5923.101562 2934.148438 L 5925.910156 2936.648438 C 5842.101562 3030.691406 5741.828125 3078.949219 5619.339844 3084.199219 C 5611.980469 3084.511719 5604.53125 3084.671875 5597.019531 3084.671875 "/>
<path fill-rule="nonzero" fill="rgb(68.527222%, 76.490784%, 91.264343%)" fill-opacity="1" d="M 5673.039062 3118.058594 C 5566.160156 3118.058594 5444.550781 3087.269531 5302.011719 3024.179688 C 5022.898438 2900.660156 4701.050781 2666.921875 4389.800781 2440.890625 C 3857.648438 2054.429688 3307.421875 1654.820312 2908.878906 1744.769531 C 2757.371094 1778.96875 2638.140625 1879.28125 2544.390625 2051.441406 C 2418.921875 2281.839844 2229.480469 2434.570312 1981.328125 2505.390625 C 1770.421875 2565.582031 1517.378906 2564.140625 1249.589844 2501.21875 C 978.21875 2437.460938 698.636719 2311.179688 482.527344 2154.769531 C 268.710938 2000.019531 143.273438 1835.730469 138.386719 1704.03125 C 134.375 1595.960938 212 1513.730469 362.875 1466.230469 C 518.882812 1417.121094 596.21875 1311.511719 586.523438 1160.851562 C 561.304688 768.921875 -44.03125 169.460938 -688.417969 54.53125 C -1079.589844 -15.230469 -1618.519531 65.449219 -1964.53125 846.019531 L -1967.960938 844.511719 C -1822.078125 515.421875 -1627.019531 282.539062 -1388.191406 152.320312 C -1180.558594 39.128906 -944.90625 4.988281 -687.761719 50.839844 C -41.84375 166.039062 564.960938 767.390625 590.265625 1160.609375 C 600.085938 1313.191406 521.84375 1420.109375 364.003906 1469.808594 C 214.910156 1516.738281 138.191406 1597.691406 142.132812 1703.890625 C 146.980469 1834.429688 271.851562 1997.660156 484.726562 2151.730469 C 700.449219 2307.859375 979.542969 2433.917969 1250.449219 2497.570312 C 1840.199219 2636.140625 2310.621094 2472.878906 2541.101562 2049.648438 C 2635.398438 1876.488281 2755.429688 1775.570312 2908.058594 1741.121094 C 3308.191406 1650.789062 3859.179688 2050.898438 4392 2437.851562 C 4703.101562 2663.769531 5024.78125 2897.390625 5303.53125 3020.75 C 5618.960938 3160.351562 5839.648438 3145.269531 5998.019531 2973.25 L 6000.78125 2975.789062 C 5916.421875 3067.398438 5814.851562 3113.851562 5690.261719 3117.789062 C 5684.558594 3117.96875 5678.820312 3118.058594 5673.039062 3118.058594 "/>
<path fill-rule="nonzero" fill="rgb(56.703186%, 58.204651%, 82.514954%)" fill-opacity="1" d="M 5750.96875 3151.640625 C 5640.839844 3151.640625 5514.988281 3120.179688 5366.75 3055.640625 C 5081.460938 2931.421875 4751.578125 2698.429688 4432.558594 2473.109375 C 3882.988281 2084.96875 3314.671875 1683.621094 2909.320312 1775.960938 C 2759.699219 1810.039062 2642.320312 1906.808594 2550.460938 2071.808594 C 2423.25 2300.320312 2228.378906 2449.511719 1971.261719 2515.261719 C 1753.140625 2571.019531 1491.300781 2564.191406 1214.050781 2495.460938 C 939.089844 2427.308594 657.195312 2299.199219 440.644531 2143.988281 C 225.824219 1990.011719 101.003906 1828.480469 98.1875 1700.808594 C 95.902344 1597.25 174.167969 1519.050781 324.519531 1474.660156 C 478.996094 1429.058594 556.859375 1329.488281 549.6875 1186.71875 C 540.289062 999.671875 387.46875 756.671875 140.898438 536.699219 C -121.34375 302.738281 -446.070312 135.640625 -750.019531 78.238281 C -1318.300781 -29.089844 -1780.148438 242.101562 -2050.488281 841.808594 L -2053.910156 840.269531 C -1907.808594 516.179688 -1710.089844 288.390625 -1466.238281 163.238281 C -1254.46875 54.550781 -1013.261719 24.71875 -749.324219 74.558594 C -444.722656 132.078125 -119.34375 299.511719 143.390625 533.898438 C 390.699219 754.53125 543.984375 998.5 553.433594 1186.53125 C 560.703125 1331.230469 481.914062 1432.109375 325.578125 1478.261719 C 177.023438 1522.121094 99.691406 1599.039062 101.933594 1700.730469 C 104.726562 1827.199219 228.980469 1987.660156 442.832031 2140.941406 C 659.011719 2295.890625 940.4375 2423.78125 1214.949219 2491.820312 C 1827.789062 2643.710938 2313.378906 2489.960938 2547.191406 2069.980469 C 2639.589844 1904 2757.769531 1806.628906 2908.480469 1772.300781 C 3315.539062 1679.601562 3884.480469 2081.441406 4434.71875 2470.050781 C 4753.589844 2695.261719 5083.308594 2928.128906 5368.25 3052.199219 C 5690.699219 3192.589844 5915.171875 3179.960938 6074.648438 3012.441406 L 6077.371094 3015.03125 C 5992.429688 3104.25 5889.519531 3148.898438 5762.769531 3151.519531 C 5758.871094 3151.601562 5754.921875 3151.640625 5750.96875 3151.640625 "/>
<path fill-rule="nonzero" fill="rgb(66.699219%, 89.085388%, 93.768311%)" fill-opacity="1" d="M 5830.871094 3185.441406 C 5717.398438 3185.441406 5587.160156 3153.269531 5432.980469 3087.199219 C 5141.398438 2962.238281 4803.339844 2729.910156 4476.410156 2505.230469 C 3909.011719 2115.28125 3322.289062 1712.078125 2910 1806.648438 C 2762.339844 1840.53125 2646.820312 1933.839844 2556.820312 2091.898438 C 2427.601562 2318.820312 2226.679688 2464.488281 1959.640625 2524.878906 C 1733.570312 2575.988281 1462.140625 2563.371094 1174.710938 2488.359375 C 896.761719 2415.820312 613.347656 2286.121094 397.140625 2132.511719 C 182.058594 1979.699219 58.203125 1821.25 57.332031 1697.769531 C 56.628906 1598.429688 135.542969 1524.03125 285.546875 1482.609375 C 438.777344 1440.300781 517.167969 1346.289062 512.246094 1210.769531 C 505.625 1028.441406 351.175781 787.898438 99.09375 567.320312 C -168.511719 333.160156 -500.304688 163.308594 -811.214844 101.300781 C -1395.808594 -15.289062 -1867.011719 245.910156 -2138 836.800781 L -2141.410156 835.238281 C -1994.949219 515.878906 -1794.28125 293.089844 -1545 173.058594 C -1328.75 68.921875 -1081.621094 43.550781 -810.484375 97.621094 C -498.945312 159.75 -166.519531 329.921875 101.5625 564.5 C 354.40625 785.75 509.335938 1027.289062 515.996094 1210.640625 C 520.984375 1348.101562 441.640625 1443.390625 286.542969 1486.230469 C 138.355469 1527.148438 60.390625 1600.289062 61.082031 1697.738281 C 61.945312 1820 185.226562 1977.359375 399.3125 2129.460938 C 615.164062 2282.808594 898.132812 2412.300781 1175.660156 2484.730469 C 1477.511719 2563.511719 2216.058594 2682.738281 2553.550781 2090.050781 C 2644.109375 1931.019531 2760.429688 1837.121094 2909.171875 1803 C 3323.03125 1708.011719 3910.460938 2111.738281 4478.539062 2502.140625 C 4805.308594 2726.71875 5143.21875 2958.941406 5434.460938 3083.75 C 5764.089844 3225.011719 5992.421875 3214.839844 6153.050781 3051.75 L 6155.71875 3054.371094 C 6070.171875 3141.230469 5965.898438 3184.089844 5836.929688 3185.410156 C 5834.921875 3185.429688 5832.890625 3185.441406 5830.871094 3185.441406 "/>
<path fill-rule="nonzero" fill="rgb(27.853394%, 35.292053%, 69.683838%)" fill-opacity="1" d="M 5912.738281 3219.460938 C 5795.839844 3219.460938 5661.058594 3186.558594 5500.691406 3118.890625 C 5202.699219 2993.148438 4856.328125 2761.378906 4521.371094 2537.25 C 3935.71875 2145.378906 3330.128906 1740.148438 2911.019531 1836.859375 C 2765.371094 1870.46875 2651.699219 1960.371094 2563.511719 2111.71875 C 2432.03125 2337.351562 2224.390625 2479.488281 1946.339844 2534.199219 C 1711.46875 2580.417969 1429.609375 2561.582031 1131.230469 2479.738281 C 545.507812 2319.089844 13.847656 1944.988281 15.789062 1694.851562 C 16.53125 1599.460938 96.121094 1528.628906 245.957031 1490.03125 C 398.191406 1450.808594 477.121094 1361.960938 474.21875 1233.089844 C 470.222656 1055.589844 314.253906 817.789062 57.003906 596.980469 C -215.578125 363.011719 -554.101562 190.53125 -871.773438 123.769531 C -1473.808594 -2.730469 -1955.171875 248.421875 -2227.128906 830.980469 L -2230.53125 829.398438 C -2083.53125 514.5 -1879.601562 296.609375 -1624.398438 181.769531 C -1403.28125 82.269531 -1149.789062 61.519531 -871 120.109375 C -552.734375 186.980469 -213.597656 359.761719 59.445312 594.128906 C 317.492188 815.621094 473.949219 1054.460938 477.96875 1233.011719 C 480.914062 1363.820312 401.007812 1453.960938 246.890625 1493.660156 C 98.886719 1531.800781 20.265625 1601.371094 19.539062 1694.878906 C 17.609375 1943.511719 547.957031 2315.878906 1132.230469 2476.128906 C 1447.089844 2562.5 2216.558594 2699.671875 2560.261719 2109.839844 C 2649.011719 1957.539062 2763.460938 1867.058594 2910.179688 1833.210938 C 3330.890625 1736.128906 3937.140625 2141.820312 4523.460938 2534.128906 C 4858.269531 2758.171875 5204.488281 2989.828125 5502.148438 3115.441406 C 5839.050781 3257.601562 6071.359375 3249.890625 6233.21875 3091.140625 L 6235.851562 3093.820312 C 6149.648438 3178.359375 6043.960938 3219.449219 5912.738281 3219.460938 "/>
<path fill-rule="nonzero" fill="rgb(54.023743%, 72.436523%, 81.945801%)" fill-opacity="1" d="M 5996.628906 3253.71875 C 5994.488281 3253.71875 5992.359375 3253.710938 5990.210938 3253.691406 C 5871.25 3252.519531 5733.769531 3218.839844 5569.898438 3150.71875 C 5265.378906 3024.128906 4910.558594 2792.839844 4567.421875 2569.160156 C 3963.121094 2175.25 3338.261719 1767.929688 2912.328125 1866.558594 C 2768.75 1899.820312 2656.929688 1986.398438 2570.511719 2131.261719 C 2436.46875 2355.910156 2221.320312 2494.488281 1931.050781 2543.140625 C 1686.449219 2584.140625 1393.21875 2558.628906 1083.070312 2469.359375 C 801.320312 2388.261719 517.636719 2256.25 304.753906 2107.171875 C 91.699219 1957.96875 -29.011719 1806.621094 -26.429688 1691.949219 C -24.363281 1600.25 55.925781 1532.808594 205.757812 1496.910156 C 357.230469 1460.609375 436.71875 1376.539062 435.625 1253.800781 C 434.09375 1081.199219 276.734375 846.410156 14.699219 625.71875 C -262.449219 392.308594 -607.335938 217.359375 -931.535156 145.730469 C -1552.308594 8.589844 -2044.648438 249.601562 -2317.898438 824.390625 L -2321.289062 822.769531 C -2173.570312 512.058594 -1966.019531 298.960938 -1704.378906 189.398438 C -1477.980469 94.589844 -1217.691406 78.671875 -930.726562 142.070312 C -605.953125 213.820312 -260.480469 389.058594 17.113281 622.851562 C 279.976562 844.230469 437.835938 1080.089844 439.375 1253.761719 C 440.484375 1378.460938 360.003906 1463.789062 206.628906 1500.550781 C 56.523438 1536.519531 -20.628906 1600.949219 -22.679688 1692.03125 C -25.234375 1805.429688 94.894531 1955.628906 306.90625 2104.101562 C 519.460938 2252.949219 802.742188 2384.769531 1084.109375 2465.75 C 1413.191406 2560.46875 2216.46875 2717.289062 2567.289062 2129.339844 C 2654.261719 1983.558594 2766.851562 1896.410156 2911.488281 1862.910156 C 3338.988281 1763.910156 3964.519531 2171.679688 4569.46875 2566.019531 C 4912.46875 2789.609375 5267.140625 3020.800781 5571.339844 3147.261719 C 5915.671875 3290.398438 6152.03125 3285.128906 6315.191406 3130.699219 L 6317.769531 3133.421875 C 6232.28125 3214.328125 6127.179688 3253.71875 5996.628906 3253.71875 "/>
<path fill-rule="nonzero" fill="rgb(66.036987%, 68.067932%, 84.431458%)" fill-opacity="1" d="M 6082.601562 3288.21875 C 6078.230469 3288.21875 6073.851562 3288.179688 6069.421875 3288.089844 C 5948.351562 3285.761719 5808.101562 3251.28125 5640.660156 3182.679688 C 5329.480469 3055.199219 4966.058594 2824.289062 4614.609375 2600.980469 C 3991.25 2204.898438 3346.628906 1795.308594 2913.988281 1895.769531 C 2772.488281 1928.621094 2662.53125 2011.949219 2577.828125 2150.53125 C 2440.910156 2374.53125 2217.421875 2509.480469 1913.570312 2551.640625 C 1658.171875 2587.070312 1352.570312 2554.359375 1029.820312 2457.03125 C 435.71875 2277.871094 -77.9375 1919.019531 -69.398438 1689.078125 C -66.074219 1599.589844 12.75 1537.070312 164.890625 1503.261719 C 315.832031 1469.71875 395.898438 1390.101562 396.4375 1273.011719 C 398.003906 930.960938 -274.175781 333.328125 -990.273438 167.308594 C -1361.421875 81.269531 -2039.449219 51.25 -2410.328125 817 L -2413.710938 815.359375 C -2265.101562 508.539062 -2053.53125 300.148438 -1784.871094 195.988281 C -1552.71875 105.988281 -1285.109375 95.101562 -989.429688 163.660156 C -658.410156 240.398438 -307.023438 417.949219 -25.363281 650.769531 C 241.875 871.691406 400.960938 1104.300781 400.1875 1273.03125 C 399.644531 1392.078125 318.558594 1472.960938 165.703125 1506.921875 C 15.4375 1540.308594 -62.398438 1601.648438 -65.652344 1689.21875 C -74.132812 1917.621094 438.277344 2274.730469 1030.910156 2453.441406 C 1353.140625 2550.609375 1658.191406 2583.28125 1913.058594 2547.917969 C 2215.738281 2505.929688 2438.328125 2371.570312 2574.628906 2148.578125 C 2658.699219 2011.03125 2772.589844 1924.738281 2913.140625 1892.121094 C 3347.378906 1791.289062 3992.609375 2201.328125 4616.621094 2597.808594 C 4967.941406 2821.039062 5331.210938 3051.859375 5642.078125 3179.210938 C 5989.148438 3321.390625 6236.761719 3318.511719 6399.03125 3170.371094 L 6401.558594 3173.140625 C 6316.808594 3250.511719 6212.359375 3288.21875 6082.601562 3288.21875 "/>
<path fill-rule="nonzero" fill="rgb(59.632874%, 78.120422%, 84.884644%)" fill-opacity="1" d="M 6170.621094 3323.019531 C 6163.929688 3323.019531 6157.191406 3322.921875 6150.359375 3322.730469 C 6027.140625 3319.230469 5884.070312 3283.929688 5712.96875 3214.828125 C 5395.011719 3086.398438 5022.839844 2855.769531 4662.921875 2632.730469 C 3824.449219 2113.140625 2957.441406 1575.851562 2585.46875 2169.550781 C 2445.328125 2393.230469 2212.539062 2524.449219 1893.558594 2559.570312 C 1555.710938 2596.761719 1205.320312 2516.390625 970.867188 2442.410156 C 689.089844 2353.5 409.636719 2220.710938 204.15625 2078.089844 C -5.953125 1932.25 -118.628906 1793.058594 -113.105469 1686.171875 C -108.65625 1599.96875 -29.089844 1540.398438 123.375 1509.101562 C 273.988281 1478.179688 354.660156 1402.71875 356.667969 1290.851562 C 359.578125 1128.28125 199.972656 900.261719 -70.265625 680.898438 C -355.03125 449.738281 -711.316406 270.300781 -1047.761719 188.589844 C -1431.441406 95.398438 -2130.898438 52.070312 -2504.5 808.800781 L -2507.871094 807.140625 C -2358.160156 503.910156 -2142.128906 300.148438 -1865.800781 201.539062 C -1627.390625 116.460938 -1351.871094 110.871094 -1046.878906 184.941406 C -709.910156 266.78125 -353.085938 446.488281 -67.902344 677.980469 C 203.230469 898.070312 363.34375 1127.199219 360.414062 1290.910156 C 358.375 1404.75 276.667969 1481.460938 124.128906 1512.769531 C -26.453125 1543.679688 -105.007812 1602.089844 -109.363281 1686.359375 C -114.734375 1790.390625 0.316406 1932.039062 206.296875 2075.011719 C 411.480469 2217.421875 690.566406 2350.03125 971.996094 2438.832031 C 1206.109375 2512.699219 1555.949219 2592.96875 1893.148438 2555.839844 C 2210.929688 2520.859375 2442.789062 2390.21875 2582.300781 2167.550781 C 2672.148438 2024.128906 2791.550781 1941.300781 2947.300781 1914.351562 C 3085.628906 1890.398438 3249.421875 1911.511719 3448.058594 1978.839844 C 3816.21875 2103.628906 4247.660156 2370.988281 4664.890625 2629.539062 C 5024.679688 2852.5 5396.710938 3083.039062 5714.378906 3211.351562 C 6069.078125 3354.621094 6321.070312 3354.25 6484.761719 3210.21875 L 6487.238281 3213.03125 C 6403.238281 3286.941406 6299.5 3323.019531 6170.621094 3323.019531 "/>
</svg>
